# xmcd CD database file
#
# Track frame offsets:
#	150
#	21445
#	38922
#	55800
#	75195
#	99477
#	116640
#	135872
#	154105
#	173147
#
# Disc length: 2522 seconds
#
# Revision: 0
# Processed by: cddbd v1.5PL3 Copyright (c) Steve Scherf et al.
# Submitted via: CDex 1.50beta8
#
DISCID=7009d80a
DTITLE=渡辺真知子 - ライブラ
DYEAR=1980
DGENRE=ポップス
TTITLE0=涙の音
TTITLE1=唇よ、熱く君を語れ
TTITLE2=Ｌｏｖｅ−Ｓａｆｅｔｙ　Ｚｏｎｅ
TTITLE3=Ｓｕｍｍｅｒ　Ｎｉｇｈｔ
TTITLE4=Ｒａｉｎｙ　Ｄａｙ
TTITLE5=Ｈｏｌｄ　Ｍｅ　Ｔｉｇｈｔ
TTITLE6=Ｓｔｏｐ　Ｔｈｅ　Ｍｕｓｉｃ
TTITLE7=或る男と女の物語
TTITLE8=Ａｈａ！
TTITLE9=Ｄｒｅａｍ
EXTD=YEAR: 1980
EXTT0=
EXTT1=
EXTT2=
EXTT3=
EXTT4=
EXTT5=
EXTT6=
EXTT7=
EXTT8=
EXTT9=
PLAYORDER=
